<svg width="1366" height="910" viewBox="0 0 1366 910" fill="none" xmlns="http://www.w3.org/2000/svg">
<g clip-path="url(#clip0_2021_5686)">
<path d="M-603.659 45.7549L684.273 -60.4211L1972.2 45.7549" stroke="#1C252D" stroke-width="1.5" stroke-miterlimit="10"/>
<path d="M-583.938 161.221L684.271 1.95044L1952.48 161.221" stroke="#1C252D" stroke-width="1.5" stroke-miterlimit="10"/>
<path d="M-564.218 276.682L684.271 64.3257L1932.76 276.682" stroke="#1C252D" stroke-width="1.5" stroke-miterlimit="10"/>
<path d="M-544.493 392.144L684.273 126.697L1913.03 392.144" stroke="#1C252D" stroke-width="1.5" stroke-miterlimit="10"/>
<path d="M-524.771 507.606L684.271 189.073L1893.31 507.606" stroke="#1C252D" stroke-width="1.5" stroke-miterlimit="10"/>
<path d="M-505.048 623.071L684.271 251.445L1873.59 623.071" stroke="#1C252D" stroke-width="1.5" stroke-miterlimit="10"/>
<path d="M-485.328 738.532L684.272 313.82L1853.87 738.532" stroke="#1C252D" stroke-width="1.5" stroke-miterlimit="10"/>
<path d="M-465.605 853.994L684.271 376.192L1834.14 853.994" stroke="#1C252D" stroke-width="1.5" stroke-miterlimit="10"/>
<path d="M-445.881 969.456L684.273 438.568L1814.43 969.456" stroke="#1C252D" stroke-width="1.5" stroke-miterlimit="10"/>
<path d="M-426.158 1084.92L684.272 500.938L1794.7 1084.92" stroke="#1C252D" stroke-width="1.5" stroke-miterlimit="10"/>
<path d="M-406.435 1200.38L684.272 563.314L1774.98 1200.38" stroke="#1C252D" stroke-width="1.5" stroke-miterlimit="10"/>
<path d="M-386.715 1315.84L684.272 625.686L1755.26 1315.84" stroke="#1C252D" stroke-width="1.5" stroke-miterlimit="10"/>
<path d="M-366.992 1431.31L684.272 688.058L1735.53 1431.31" stroke="#1C252D" stroke-width="1.5" stroke-miterlimit="10"/>
<path d="M-347.269 1546.77L684.272 750.433L1715.81 1546.77" stroke="#1C252D" stroke-width="1.5" stroke-miterlimit="10"/>
<path d="M-327.546 1662.23L684.271 812.804L1696.09 1662.23" stroke="#1C252D" stroke-width="1.5" stroke-miterlimit="10"/>
<path d="M-307.822 1777.7L684.272 875.18L1676.37 1777.7" stroke="#1C252D" stroke-width="1.5" stroke-miterlimit="10"/>
</g>
<defs>
<clipPath id="clip0_2021_5686">
<rect width="1366" height="909.149" fill="white"/>
</clipPath>
</defs>
</svg>
